<svg xmlns="http://www.w3.org/2000/svg" xmlns:xlink="http://www.w3.org/1999/xlink" width="100px" height="100px" viewBox="0 0 100 100" version="1.1">
<g id="surface1">
<path style=" stroke:none;fill-rule:nonzero;fill:#d2d8d8;fill-opacity:1;" d="M 55.957031 17.480469 C 55.632812 17.683594 55.507812 17.84375 55.417969 18.175781 C 55.226562 18.847656 55.734375 19.507812 56.453125 19.515625 C 56.882812 19.523438 57.179688 19.355469 57.414062 18.976562 C 57.625 18.632812 57.625 18.285156 57.414062 17.9375 C 57.082031 17.382812 56.453125 17.195312 55.957031 17.480469 Z M 55.957031 17.480469 "/>
<path style=" stroke:none;fill-rule:nonzero;fill:#d2d8d8;fill-opacity:1;" d="M 36.089844 19.816406 C 35.53125 20.117188 35.34375 20.828125 35.691406 21.34375 C 36.164062 22.058594 37.175781 22.050781 37.550781 21.320312 C 37.847656 20.742188 37.609375 20.023438 37.035156 19.785156 C 36.660156 19.625 36.425781 19.632812 36.089844 19.816406 Z M 36.089844 19.816406 "/>
<path style=" stroke:none;fill-rule:nonzero;fill:#d2d8d8;fill-opacity:1;" d="M 46.199219 22.324219 C 45.832031 22.550781 45.617188 23.132812 45.742188 23.519531 C 45.800781 23.664062 45.882812 23.847656 45.945312 23.917969 C 46.433594 24.542969 47.441406 24.441406 47.777344 23.726562 C 47.949219 23.367188 47.949219 23.171875 47.800781 22.792969 C 47.558594 22.222656 46.75 21.992188 46.199219 22.324219 Z M 46.199219 22.324219 "/>
<path style=" stroke:none;fill-rule:nonzero;fill:#d2d8d8;fill-opacity:1;" d="M 48.375 24.160156 C 48.328125 24.308594 48.640625 24.667969 50.421875 26.5 C 51.992188 28.125 52.566406 28.664062 52.714844 28.664062 C 52.859375 28.664062 52.921875 28.726562 52.964844 28.890625 C 53.054688 29.207031 53.40625 29.667969 53.574219 29.667969 C 53.882812 29.65625 53.957031 29.535156 53.84375 29.207031 C 53.78125 29.042969 53.75 28.882812 53.773438 28.867188 C 53.890625 28.75 54.355469 29.132812 54.5625 29.507812 C 54.695312 29.742188 54.851562 30.007812 54.929688 30.109375 C 55.058594 30.277344 55.070312 30.277344 55.34375 30.140625 L 55.625 30.007812 L 55.675781 30.257812 C 55.75 30.605469 55.949219 30.800781 56.382812 30.917969 C 56.742188 31.019531 56.75 31.023438 56.75 31.382812 C 56.75 31.867188 56.992188 32.125 57.84375 32.585938 C 58.375 32.875 58.546875 33.015625 58.640625 33.222656 C 58.699219 33.375 58.78125 33.5 58.816406 33.5 C 58.875 33.5 60.5 30.671875 60.5 30.558594 C 60.5 30.527344 60.347656 30.5 60.167969 30.5 C 59.832031 30.5 59.832031 30.5 59.832031 30.183594 C 59.832031 29.953125 59.773438 29.8125 59.65625 29.699219 C 59.558594 29.617188 59.34375 29.257812 59.167969 28.917969 C 58.65625 27.917969 58.382812 27.742188 56.96875 27.546875 C 55.742188 27.375 55.109375 27.015625 55.558594 26.757812 C 55.683594 26.691406 55.65625 26.632812 55.332031 26.273438 L 54.953125 25.875 L 55.539062 25.832031 L 56.125 25.792969 L 56.109375 25.484375 C 56.089844 25.226562 56.117188 25.175781 56.296875 25.132812 C 56.542969 25.066406 56.554688 24.992188 56.34375 24.859375 C 55.992188 24.640625 55.644531 24.65625 54.914062 24.929688 C 54.523438 25.066406 54.027344 25.25 53.796875 25.332031 C 53.390625 25.476562 53.390625 25.53125 53.796875 25.601562 C 53.898438 25.625 53.953125 25.683594 53.933594 25.792969 C 53.890625 26.042969 53.617188 26.230469 53.195312 26.300781 C 52.792969 26.359375 52.800781 26.464844 53.210938 26.515625 C 53.417969 26.53125 53.457031 26.574219 53.429688 26.742188 C 53.425781 26.855469 53.40625 26.960938 53.390625 26.96875 C 53.382812 26.972656 53.191406 26.945312 52.957031 26.921875 C 52.730469 26.875 52.15625 26.84375 51.691406 26.84375 C 51.226562 26.828125 50.828125 26.804688 50.800781 26.765625 C 50.671875 26.550781 51.191406 26.335938 51.851562 26.335938 C 52.285156 26.335938 52.375 26.203125 52.042969 26.082031 C 51.691406 25.949219 51.804688 25.617188 52.207031 25.566406 L 52.453125 25.53125 L 52.195312 25.375 C 52.023438 25.277344 51.921875 25.140625 51.921875 25.03125 C 51.921875 24.890625 52 24.839844 52.375 24.75 C 52.632812 24.695312 52.859375 24.605469 52.882812 24.578125 C 52.941406 24.46875 52.523438 24.394531 52.207031 24.441406 C 51.875 24.492188 51.734375 24.375 52.015625 24.28125 L 52.207031 24.226562 L 52 24.144531 C 51.882812 24.097656 51.035156 24.042969 50.117188 24.015625 C 48.449219 23.976562 48.429688 23.980469 48.375 24.160156 Z M 51.191406 24.214844 C 51.269531 24.304688 51.15625 24.5 51.035156 24.5 C 50.96875 24.5 50.917969 24.445312 50.917969 24.394531 C 50.917969 24.207031 51.074219 24.097656 51.191406 24.214844 Z M 51.191406 24.214844 "/>
<path style=" stroke:none;fill-rule:nonzero;fill:#d2d8d8;fill-opacity:1;" d="M 63.484375 24.214844 C 63.015625 24.46875 62.824219 25.265625 63.117188 25.710938 C 63.308594 26 63.730469 26.25 64.042969 26.25 C 64.582031 26.25 65.167969 25.695312 65.167969 25.183594 C 65.167969 24.882812 64.953125 24.460938 64.707031 24.265625 C 64.433594 24.050781 63.835938 24.027344 63.484375 24.214844 Z M 63.484375 24.214844 "/>
<path style=" stroke:none;fill-rule:nonzero;fill:#d2d8d8;fill-opacity:1;" d="M 42.042969 25.28125 C 40.484375 25.808594 39.054688 26.296875 38.875 26.367188 C 38.375 26.574219 36.804688 27.367188 36.75 27.433594 C 36.726562 27.46875 36.609375 27.53125 36.5 27.585938 C 35.875 27.847656 34.007812 29.1875 32.84375 30.183594 L 32.476562 30.492188 L 33.25 31.335938 L 34.027344 32.175781 L 37.570312 32.089844 L 37.875 32.296875 C 38.210938 32.519531 38.355469 32.480469 38.457031 32.15625 C 38.523438 31.945312 38.71875 31.960938 38.835938 32.167969 C 38.964844 32.414062 39.109375 32.367188 39.289062 32.015625 C 39.40625 31.808594 39.523438 31.699219 39.667969 31.6875 C 40.109375 31.632812 40.242188 31.574219 40.292969 31.417969 C 40.359375 31.199219 40.558594 31.199219 40.625 31.417969 C 40.683594 31.597656 40.792969 31.632812 40.882812 31.492188 C 40.90625 31.4375 41.042969 31.417969 41.179688 31.433594 C 41.417969 31.476562 41.4375 31.433594 43.417969 27.976562 C 44.515625 26.0625 45.394531 24.445312 45.367188 24.40625 C 45.265625 24.242188 44.75 24.375 42.042969 25.28125 Z M 43.210938 27.179688 C 43.125 27.449219 43.058594 27.507812 42.78125 27.523438 C 42.59375 27.546875 42.546875 27.507812 42.546875 27.375 C 42.546875 27.207031 42.847656 27 43.105469 27 C 43.222656 27 43.25 27.042969 43.210938 27.179688 Z M 43.5 27.625 C 43.5 27.757812 43.425781 27.78125 43.21875 27.703125 C 43.054688 27.632812 43.125 27.5 43.339844 27.5 C 43.425781 27.5 43.5 27.558594 43.5 27.625 Z M 43.5 27.625 "/>
<path style=" stroke:none;fill-rule:nonzero;fill:#d2d8d8;fill-opacity:1;" d="M 47.375 24.953125 C 47.082031 25.09375 46.515625 25.117188 46.230469 25.007812 C 46.046875 24.941406 45.972656 25.03125 44.792969 27.101562 C 44.097656 28.292969 43.523438 29.308594 43.507812 29.355469 C 43.492188 29.398438 43.566406 29.382812 43.679688 29.308594 C 43.917969 29.132812 44.167969 29.125 44.167969 29.289062 C 44.167969 29.394531 44.234375 29.40625 44.484375 29.367188 C 44.71875 29.328125 44.824219 29.351562 44.90625 29.445312 C 45.007812 29.5625 45.046875 29.5625 45.257812 29.460938 C 45.476562 29.34375 45.5 29.34375 45.578125 29.492188 C 45.625 29.582031 45.671875 29.71875 45.671875 29.785156 C 45.671875 29.882812 45.710938 29.890625 45.855469 29.839844 C 45.984375 29.792969 46.035156 29.71875 46.019531 29.578125 C 46.007812 29.46875 46.035156 29.316406 46.082031 29.25 C 46.21875 29.042969 46.433594 29.25 46.765625 29.929688 C 46.941406 30.265625 47.175781 30.625 47.292969 30.722656 L 47.5 30.90625 L 47.285156 31.046875 C 47.140625 31.140625 47.082031 31.25 47.105469 31.347656 C 47.140625 31.476562 47.101562 31.5 46.84375 31.5 C 46.671875 31.5 46.457031 31.453125 46.375 31.382812 C 46.183594 31.25 45.757812 31.34375 45.410156 31.597656 C 45.132812 31.808594 44.625 31.816406 44.257812 31.632812 C 44.125 31.554688 43.890625 31.5 43.75 31.5 C 43.507812 31.5 43.171875 31.257812 43.171875 31.082031 C 43.171875 31.035156 43.402344 31 43.703125 31 C 44.34375 31 44.890625 30.792969 44.632812 30.648438 C 44.445312 30.554688 43.992188 30.601562 43.542969 30.773438 C 43.242188 30.890625 43.191406 30.890625 43.078125 30.773438 C 42.976562 30.671875 42.976562 30.644531 43.117188 30.558594 C 43.195312 30.5 43.332031 30.398438 43.40625 30.332031 C 43.484375 30.265625 43.5 30.242188 43.449219 30.277344 C 43.390625 30.320312 43.273438 30.304688 43.183594 30.257812 C 43.054688 30.183594 42.984375 30.25 42.683594 30.773438 L 42.332031 31.375 L 42.507812 31.515625 C 42.617188 31.609375 42.84375 31.667969 43.09375 31.671875 C 43.730469 31.691406 43.703125 31.6875 43.683594 32.023438 L 43.652344 32.332031 L 44.445312 32.332031 C 45.230469 32.332031 45.242188 32.332031 45.417969 32.585938 C 45.695312 32.984375 46.140625 32.882812 45.875 32.476562 C 45.71875 32.234375 45.773438 32.050781 46.046875 31.925781 C 46.203125 31.855469 46.308594 31.855469 46.4375 31.933594 C 46.644531 32.042969 48.03125 32.058594 48.507812 31.96875 C 48.773438 31.90625 48.816406 31.925781 48.859375 32.082031 C 48.925781 32.339844 49.074219 32.257812 49.398438 31.789062 L 49.679688 31.390625 L 49.507812 31.179688 C 49.027344 30.574219 48.898438 30.332031 48.953125 30.125 C 49.117188 29.460938 50 30.125 50 30.917969 C 50 31.140625 50.023438 31.164062 50.25 31.164062 C 50.457031 31.164062 50.5 31.199219 50.554688 31.457031 C 50.605469 31.777344 50.675781 31.816406 50.832031 31.625 C 51 31.425781 51.152344 31.480469 51.203125 31.765625 C 51.242188 31.921875 51.308594 32.105469 51.347656 32.195312 C 51.53125 32.546875 52 31.90625 52 31.300781 C 52 31.023438 51.972656 30.992188 51.457031 30.75 C 50.890625 30.484375 50.851562 30.4375 51.019531 30.265625 C 51.089844 30.1875 51.089844 30.167969 50.992188 30.167969 C 50.917969 30.167969 50.800781 30.097656 50.722656 30.019531 C 50.601562 29.875 50.601562 29.824219 50.773438 29.25 C 50.925781 28.769531 51 28.625 51.140625 28.582031 C 51.308594 28.546875 51.242188 28.449219 50.53125 27.6875 C 49.816406 26.925781 49.722656 26.851562 49.578125 26.941406 C 49.375 27.0625 49.132812 26.933594 49.097656 26.671875 C 49.082031 26.550781 49.117188 26.5 49.214844 26.5 C 49.316406 26.5 49.09375 26.21875 48.574219 25.683594 C 48.144531 25.242188 47.757812 24.867188 47.707031 24.859375 C 47.667969 24.851562 47.519531 24.902344 47.375 24.953125 Z M 46.074219 27 C 46.140625 27.21875 46.199219 27.25 46.453125 27.25 C 46.78125 27.25 46.808594 27.292969 46.617188 27.566406 C 46.5 27.730469 46.425781 27.757812 46.0625 27.730469 L 45.625 27.707031 L 45.578125 27.269531 C 45.53125 26.765625 45.539062 26.75 45.800781 26.75 C 45.929688 26.75 46.007812 26.824219 46.074219 27 Z M 48.523438 26.84375 C 48.742188 26.898438 48.835938 26.972656 48.835938 27.082031 C 48.835938 27.339844 48.484375 27.667969 48.15625 27.714844 C 47.867188 27.765625 47.859375 27.757812 47.894531 27.550781 C 47.9375 27.367188 47.898438 27.316406 47.757812 27.273438 C 47.558594 27.222656 47.546875 27.167969 47.6875 26.984375 C 47.875 26.75 48.074219 26.714844 48.523438 26.84375 Z M 49.625 27.5 C 49.832031 27.898438 49.792969 28 49.421875 28 C 49.03125 28 48.933594 27.867188 49.09375 27.566406 C 49.289062 27.179688 49.445312 27.167969 49.625 27.5 Z M 48.625 28.800781 C 48.625 28.976562 48.664062 29.125 48.730469 29.144531 C 48.898438 29.199219 48.859375 29.785156 48.664062 29.953125 C 48.5 30.109375 48.484375 30.109375 48.078125 29.707031 C 47.730469 29.355469 47.6875 29.28125 47.757812 29.109375 C 47.800781 29 47.832031 28.800781 47.832031 28.679688 C 47.832031 28.457031 47.847656 28.449219 48.234375 28.46875 L 48.625 28.484375 Z M 46.75 28.75 C 46.75 28.859375 46.691406 28.917969 46.582031 28.917969 C 46.425781 28.917969 46.359375 28.75 46.476562 28.640625 C 46.582031 28.523438 46.75 28.589844 46.75 28.75 Z M 48.953125 31.132812 C 49.132812 31.308594 49.117188 31.464844 48.898438 31.617188 C 48.65625 31.789062 48.472656 31.78125 48.242188 31.59375 C 48.058594 31.4375 48.058594 31.433594 48.191406 31.21875 C 48.355469 30.96875 48.742188 30.917969 48.953125 31.132812 Z M 48.953125 31.132812 "/>
<path style=" stroke:none;fill-rule:nonzero;fill:#d2d8d8;fill-opacity:1;" d="M 73.355469 27.257812 C 72.964844 27.375 72.640625 27.84375 72.640625 28.292969 C 72.640625 28.71875 72.820312 29.027344 73.191406 29.25 C 73.703125 29.5625 74.394531 29.375 74.667969 28.820312 C 74.875 28.425781 74.875 28.117188 74.667969 27.777344 C 74.382812 27.3125 73.875 27.105469 73.355469 27.257812 Z M 73.355469 27.257812 "/>
<path style=" stroke:none;fill-rule:nonzero;fill:#d2d8d8;fill-opacity:1;" d="M 29.933594 28 C 29.652344 28.175781 29.421875 28.589844 29.421875 28.925781 C 29.421875 29.226562 29.679688 29.675781 29.949219 29.839844 C 30.957031 30.457031 32.082031 29.257812 31.433594 28.265625 C 31.152344 27.824219 30.421875 27.703125 29.933594 28 Z M 29.933594 28 "/>
<path style=" stroke:none;fill-rule:nonzero;fill:#d2d8d8;fill-opacity:1;" d="M 51.507812 28.992188 C 51.273438 29.144531 51.757812 30.167969 52.0625 30.167969 C 52.269531 30.167969 52.152344 29.375 51.921875 29.125 C 51.699219 28.890625 51.671875 28.882812 51.507812 28.992188 Z M 51.507812 28.992188 "/>
<path style=" stroke:none;fill-rule:nonzero;fill:#d2d8d8;fill-opacity:1;" d="M 65.292969 29.316406 C 65.382812 29.460938 65.644531 29.839844 65.867188 30.160156 C 66.242188 30.691406 66.273438 30.792969 66.296875 31.25 C 66.308594 31.734375 66.320312 31.777344 66.691406 32.152344 C 67.132812 32.59375 67.15625 32.714844 66.90625 33.03125 C 66.707031 33.285156 66.417969 33.449219 66.007812 33.542969 C 65.8125 33.582031 65.558594 33.773438 65.175781 34.167969 C 64.875 34.472656 64.558594 34.769531 64.484375 34.8125 C 64.289062 34.902344 63.882812 36.242188 64.027344 36.296875 C 64.191406 36.347656 72.382812 38.417969 72.441406 38.417969 C 72.476562 38.417969 72.5 38.21875 72.5 37.964844 C 72.5 37.429688 72.0625 36.492188 71.199219 35.203125 C 69.796875 33.101562 67.390625 30.605469 65.53125 29.324219 L 65.132812 29.050781 Z M 68.535156 35.417969 C 69.40625 35.695312 69.71875 36.109375 69.328125 36.457031 C 69.054688 36.707031 68.632812 36.648438 68.101562 36.273438 C 67.648438 35.957031 67.640625 35.957031 67.609375 35.476562 L 67.570312 34.992188 L 67.765625 35.109375 C 67.875 35.175781 68.21875 35.320312 68.535156 35.417969 Z M 68.535156 35.417969 "/>
<path style=" stroke:none;fill-rule:nonzero;fill:#d2d8d8;fill-opacity:1;" d="M 52.449219 30.929688 C 52.390625 31.023438 52.867188 31.5 53.015625 31.5 C 53.210938 31.5 52.984375 33.105469 52.742188 33.445312 C 52.640625 33.574219 52.585938 33.691406 52.597656 33.699219 C 52.609375 33.703125 52.800781 33.816406 53.007812 33.9375 C 53.273438 34.09375 53.425781 34.25 53.492188 34.433594 C 53.625 34.796875 53.484375 34.859375 53.054688 34.617188 C 52.867188 34.507812 52.675781 34.421875 52.640625 34.421875 C 52.609375 34.421875 52.519531 34.550781 52.449219 34.71875 C 52.351562 34.953125 52.296875 35 52.140625 34.953125 C 51.90625 34.882812 51.667969 34.605469 51.667969 34.40625 C 51.667969 34.304688 51.609375 34.25 51.464844 34.25 C 51.273438 34.25 51.035156 34.472656 49.949219 35.71875 L 49.433594 36.300781 L 51.453125 36.066406 C 52.550781 35.945312 53.546875 35.839844 53.65625 35.839844 C 53.816406 35.832031 53.835938 35.808594 53.75 35.710938 C 53.640625 35.574219 53.699219 35.417969 53.875 35.417969 C 54.042969 35.417969 54.117188 35.574219 54.007812 35.695312 C 53.9375 35.785156 53.976562 35.800781 54.167969 35.765625 C 54.34375 35.742188 54.421875 35.683594 54.421875 35.574219 C 54.421875 35.4375 54.484375 35.417969 55.167969 35.417969 C 55.605469 35.417969 55.917969 35.449219 55.917969 35.5 C 55.917969 35.539062 56.007812 35.578125 56.125 35.578125 C 56.390625 35.578125 56.382812 35.53125 56.035156 35.058594 C 55.734375 34.652344 55.226562 34.34375 54.851562 34.328125 C 54.742188 34.328125 54.542969 34.394531 54.40625 34.46875 L 54.148438 34.601562 L 54.207031 34.316406 C 54.328125 33.757812 54.65625 33.449219 55.050781 33.523438 C 55.230469 33.5625 55.28125 33.523438 55.359375 33.328125 C 55.410156 33.195312 55.515625 33.078125 55.605469 33.066406 C 55.722656 33.054688 55.675781 32.957031 55.34375 32.625 C 54.929688 32.222656 54.914062 32.21875 54.914062 32.441406 C 54.914062 32.597656 54.875 32.667969 54.769531 32.667969 C 54.425781 32.667969 54.28125 32.207031 54.582031 32.101562 C 54.734375 32.042969 54.699219 31.984375 54.234375 31.53125 C 53.796875 31.109375 53.632812 31.007812 53.265625 30.929688 C 52.703125 30.808594 52.523438 30.808594 52.449219 30.929688 Z M 53.058594 35.046875 C 53.117188 35.207031 52.859375 35.5 52.648438 35.5 C 52.476562 35.5 52.441406 35.175781 52.597656 35.019531 C 52.742188 34.875 52.992188 34.890625 53.058594 35.046875 Z M 53.058594 35.046875 "/>
<path style=" stroke:none;fill-rule:nonzero;fill:#d2d8d8;fill-opacity:1;" d="M 31.625 31.269531 C 31.480469 31.359375 31.226562 31.617188 31.042969 31.84375 C 30.601562 32.359375 29.441406 33.691406 28.699219 34.515625 C 28.125 35.160156 28.058594 35.277344 26.21875 39.148438 C 24.316406 43.132812 24.242188 43.332031 24.589844 43.402344 C 24.707031 43.417969 36.390625 38.058594 36.53125 37.917969 C 36.632812 37.820312 36.359375 37.5 36.179688 37.5 C 36.101562 37.5 35.890625 37.441406 35.710938 37.375 C 35.527344 37.3125 35.214844 37.257812 35.023438 37.25 C 34.71875 37.25 34.667969 37.285156 34.507812 37.546875 C 34.375 37.765625 34.28125 37.832031 34.097656 37.832031 C 33.769531 37.832031 33.730469 37.765625 33.925781 37.492188 C 34.042969 37.324219 34.054688 37.25 33.980469 37.25 C 33.859375 37.25 33.332031 37.859375 33.332031 37.992188 C 33.332031 38.039062 33.257812 38.125 33.171875 38.183594 C 33.074219 38.242188 33 38.375 33 38.472656 C 33 38.574219 32.910156 38.757812 32.792969 38.882812 C 32.675781 39.007812 32.585938 39.148438 32.585938 39.199219 C 32.585938 39.351562 31.96875 39.914062 31.808594 39.914062 C 31.597656 39.914062 31.632812 39.816406 31.972656 39.421875 C 32.167969 39.191406 32.292969 38.957031 32.296875 38.808594 C 32.316406 38.574219 32.3125 38.566406 32.007812 38.625 C 31.480469 38.730469 31.457031 38.726562 31.433594 38.449219 C 31.410156 38.234375 31.382812 38.195312 31.21875 38.222656 C 31.046875 38.257812 31.007812 38.21875 30.925781 37.894531 C 30.785156 37.390625 30.929688 37.105469 31.609375 36.617188 C 31.894531 36.410156 32.125 36.191406 32.125 36.132812 C 32.125 36.074219 31.972656 36.046875 31.691406 36.066406 L 31.25 36.089844 L 31.25 35.800781 C 31.25 35.492188 31.425781 35.25 31.660156 35.25 C 31.824219 35.25 32.167969 34.953125 32.167969 34.816406 C 32.167969 34.757812 32.0625 34.617188 31.945312 34.492188 C 31.804688 34.328125 31.75 34.214844 31.789062 34.09375 C 31.816406 34 32.15625 33.632812 32.550781 33.273438 C 32.941406 32.921875 33.242188 32.585938 33.234375 32.523438 C 33.195312 32.375 32.0625 31.101562 31.960938 31.089844 C 31.90625 31.082031 31.757812 31.164062 31.625 31.269531 Z M 31.625 31.269531 "/>
<path style=" stroke:none;fill-rule:nonzero;fill:#d2d8d8;fill-opacity:1;" d="M 60.742188 31.855469 C 60.625 32 60.304688 32.5 60.050781 32.957031 C 59.667969 33.617188 59.582031 33.816406 59.65625 33.917969 C 59.875 34.199219 60.167969 34.890625 60.167969 35.097656 C 60.167969 35.34375 60.097656 35.320312 61.300781 35.617188 C 62.015625 35.800781 62.0625 35.785156 61.765625 35.476562 C 61.480469 35.183594 61.4375 35.007812 61.597656 34.851562 C 61.667969 34.785156 61.617188 34.675781 61.382812 34.40625 C 60.765625 33.730469 60.625 32.867188 61.019531 32.273438 C 61.183594 32.015625 61.203125 31.921875 61.140625 31.765625 C 61.035156 31.527344 61 31.53125 60.742188 31.855469 Z M 60.742188 31.855469 "/>
<path style=" stroke:none;fill-rule:nonzero;fill:#d2d8d8;fill-opacity:1;" d="M 21.410156 33.191406 C 20.808594 33.582031 20.691406 34.308594 21.132812 34.832031 C 21.714844 35.515625 22.875 35.1875 23.054688 34.289062 C 23.15625 33.71875 22.558594 33 21.960938 33 C 21.808594 33 21.570312 33.078125 21.410156 33.191406 Z M 21.410156 33.191406 "/>
<path style=" stroke:none;fill-rule:nonzero;fill:#d2d8d8;fill-opacity:1;" d="M 27.660156 33.5625 C 27.550781 33.691406 27.558594 33.699219 27.6875 33.589844 C 27.765625 33.535156 27.832031 33.46875 27.832031 33.449219 C 27.832031 33.382812 27.765625 33.425781 27.660156 33.5625 Z M 27.660156 33.5625 "/>
<path style=" stroke:none;fill-rule:nonzero;fill:#d2d8d8;fill-opacity:1;" d="M 57.414062 33.542969 C 57.414062 33.617188 57.46875 33.640625 57.546875 33.617188 C 57.609375 33.582031 57.667969 33.535156 57.667969 33.492188 C 57.667969 33.449219 57.609375 33.417969 57.546875 33.417969 C 57.476562 33.417969 57.414062 33.472656 57.414062 33.542969 Z M 57.414062 33.542969 "/>
<path style=" stroke:none;fill-rule:nonzero;fill:#d2d8d8;fill-opacity:1;" d="M 57.742188 34.308594 C 57.429688 34.507812 57.25 34.851562 57.25 35.28125 C 57.25 36.34375 58.691406 36.726562 59.25 35.808594 C 59.550781 35.324219 59.421875 34.707031 58.953125 34.34375 C 58.679688 34.125 58.058594 34.109375 57.742188 34.308594 Z M 57.742188 34.308594 "/>
<path style=" stroke:none;fill-rule:nonzero;fill:#d2d8d8;fill-opacity:1;" d="M 59.914062 36.15625 C 59.914062 36.199219 59.8125 36.347656 59.667969 36.5 L 59.421875 36.765625 L 60.160156 38.355469 C 60.566406 39.242188 60.945312 40.050781 61 40.167969 C 61.046875 40.28125 61.828125 41.984375 62.742188 43.957031 C 63.640625 45.925781 64.792969 48.429688 65.292969 49.515625 L 66.199219 51.480469 L 66.609375 51.515625 C 67.007812 51.542969 67.023438 51.53125 67.207031 51.203125 C 67.316406 51.023438 68.445312 49.054688 69.699219 46.84375 L 71.992188 42.820312 L 72.050781 42.207031 C 72.082031 41.808594 72.078125 41.582031 72.015625 41.550781 C 71.960938 41.515625 71.898438 41.582031 71.875 41.726562 C 71.742188 42.390625 71.550781 42.625 71.300781 42.429688 C 71.203125 42.339844 71.164062 42.167969 71.164062 41.804688 C 71.164062 41.191406 71.242188 41.042969 71.5 41.125 C 71.667969 41.179688 71.6875 41.15625 71.644531 40.992188 C 71.625 40.882812 71.515625 40.601562 71.410156 40.359375 C 71.226562 39.941406 71.226562 39.914062 71.367188 39.757812 C 71.453125 39.667969 71.570312 39.617188 71.632812 39.640625 C 71.804688 39.707031 72 40.109375 72 40.398438 C 72 40.648438 72.351562 41.425781 72.546875 41.582031 C 72.632812 41.660156 72.714844 41.570312 72.957031 41.125 C 73.292969 40.539062 73.292969 40.382812 72.964844 40.242188 C 72.765625 40.140625 72.5 39.640625 72.5 39.351562 C 72.5 39.226562 71.816406 39.03125 68.125 38.101562 C 65.71875 37.492188 63.703125 37.015625 63.664062 37.042969 C 63.617188 37.0625 63.582031 37.152344 63.582031 37.21875 C 63.582031 37.414062 63.382812 37.351562 63.039062 37.042969 C 62.757812 36.777344 62.570312 36.707031 61.410156 36.417969 C 59.992188 36.0625 59.914062 36.042969 59.914062 36.15625 Z M 59.914062 36.15625 "/>
<path style=" stroke:none;fill-rule:nonzero;fill:#d2d8d8;fill-opacity:1;" d="M 25.792969 36.425781 C 25.757812 36.476562 25.75 36.527344 25.773438 36.550781 C 25.792969 36.574219 25.832031 36.53125 25.855469 36.457031 C 25.917969 36.316406 25.867188 36.296875 25.792969 36.425781 Z M 25.792969 36.425781 "/>
<path style=" stroke:none;fill-rule:nonzero;fill:#d2d8d8;fill-opacity:1;" d="M 37.777344 36.582031 C 36.828125 37.15625 37.257812 38.582031 38.375 38.582031 C 39 38.582031 39.421875 38.132812 39.421875 37.453125 C 39.421875 37.105469 39.375 37.023438 39.09375 36.742188 C 38.816406 36.464844 38.71875 36.417969 38.40625 36.417969 C 38.191406 36.417969 37.9375 36.480469 37.777344 36.582031 Z M 37.777344 36.582031 "/>
<path style=" stroke:none;fill-rule:nonzero;fill:#d2d8d8;fill-opacity:1;" d="M 51.808594 36.789062 C 50.492188 36.941406 49.394531 37.082031 49.367188 37.105469 C 49.257812 37.207031 49.441406 37.910156 49.617188 38.074219 L 49.8125 38.25 L 50.324219 37.625 C 50.601562 37.285156 50.867188 37 50.90625 37 C 51.203125 37 51.816406 37.546875 52.375 38.292969 C 52.507812 38.472656 52.777344 38.800781 52.964844 39.015625 C 53.234375 39.324219 53.3125 39.492188 53.355469 39.8125 C 53.425781 40.394531 53.566406 40.671875 53.808594 40.671875 C 54.027344 40.671875 54.054688 40.476562 53.910156 40.132812 C 53.78125 39.859375 53.890625 39.582031 54.375 38.992188 C 54.839844 38.429688 54.882812 38.027344 54.523438 37.640625 C 54.324219 37.441406 54.289062 37.332031 54.289062 36.945312 C 54.289062 36.707031 54.277344 36.507812 54.25 36.507812 C 54.226562 36.515625 53.132812 36.644531 51.808594 36.789062 Z M 51.808594 36.789062 "/>
<path style=" stroke:none;fill-rule:nonzero;fill:#d2d8d8;fill-opacity:1;" d="M 57.640625 37.25 C 57.558594 37.382812 57.523438 37.5 57.570312 37.5 C 57.660156 37.5 57.917969 37.175781 57.917969 37.0625 C 57.917969 36.925781 57.777344 37.015625 57.640625 37.25 Z M 57.640625 37.25 "/>
<path style=" stroke:none;fill-rule:nonzero;fill:#d2d8d8;fill-opacity:1;" d="M 74.289062 37.53125 C 73.425781 37.921875 73.355469 39.082031 74.171875 39.5 C 74.558594 39.699219 74.742188 39.707031 75.125 39.550781 C 75.855469 39.242188 75.96875 38.074219 75.304688 37.640625 C 75.007812 37.449219 74.578125 37.402344 74.289062 37.53125 Z M 74.289062 37.53125 "/>
<path style=" stroke:none;fill-rule:nonzero;fill:#d2d8d8;fill-opacity:1;" d="M 30.875 41.398438 L 24.953125 44.125 L 24.902344 44.640625 C 24.867188 44.929688 24.785156 45.265625 24.71875 45.398438 L 24.582031 45.648438 L 29.007812 50.515625 C 31.4375 53.191406 33.457031 55.375 33.492188 55.367188 C 33.519531 55.367188 33.71875 55.320312 33.933594 55.25 C 34.199219 55.167969 34.328125 55.085938 34.367188 54.96875 C 34.394531 54.867188 34.824219 52.824219 35.332031 50.417969 C 35.839844 48.007812 36.574219 44.542969 36.960938 42.714844 C 37.351562 40.890625 37.667969 39.351562 37.667969 39.289062 C 37.667969 39.234375 37.558594 39.144531 37.429688 39.082031 C 37.292969 39.03125 37.117188 38.917969 37.035156 38.820312 C 36.960938 38.742188 36.867188 38.664062 36.84375 38.664062 C 36.816406 38.664062 34.132812 39.902344 30.875 41.398438 Z M 30.875 41.398438 "/>
<path style=" stroke:none;fill-rule:nonzero;fill:#d2d8d8;fill-opacity:1;" d="M 24.550781 38.890625 C 24.5 39.007812 24.507812 39.015625 24.589844 38.9375 C 24.652344 38.882812 24.675781 38.816406 24.652344 38.796875 C 24.625 38.769531 24.578125 38.808594 24.550781 38.890625 Z M 24.550781 38.890625 "/>
<path style=" stroke:none;fill-rule:nonzero;fill:#d2d8d8;fill-opacity:1;" d="M 25.085938 39.421875 C 24.992188 39.507812 24.914062 39.675781 24.914062 39.792969 C 24.914062 39.90625 24.824219 40.09375 24.71875 40.1875 C 24.492188 40.410156 24.25 40.851562 24.25 41.0625 C 24.25 41.140625 24.191406 41.316406 24.125 41.453125 C 24.054688 41.574219 24 41.726562 24 41.777344 C 24 41.824219 23.910156 42 23.800781 42.15625 C 23.574219 42.5 23.449219 42.832031 23.566406 42.832031 C 23.601562 42.832031 23.859375 42.375 24.117188 41.808594 C 25.214844 39.492188 25.324219 39.25 25.292969 39.25 C 25.265625 39.25 25.175781 39.324219 25.085938 39.421875 Z M 25.085938 39.421875 "/>
<path style=" stroke:none;fill-rule:nonzero;fill:#d2d8d8;fill-opacity:1;" d="M 24.226562 39.625 C 24.027344 40.046875 24.054688 40.109375 24.257812 39.722656 C 24.351562 39.542969 24.421875 39.382812 24.398438 39.367188 C 24.375 39.351562 24.304688 39.46875 24.226562 39.625 Z M 24.226562 39.625 "/>
<path style=" stroke:none;fill-rule:nonzero;fill:#d2d8d8;fill-opacity:1;" d="M 37.726562 42.765625 C 37.375 44.433594 36.632812 47.910156 36.082031 50.5 C 35.53125 53.09375 35.085938 55.230469 35.085938 55.257812 C 35.085938 55.28125 35.214844 55.367188 35.375 55.441406 C 35.527344 55.515625 35.71875 55.671875 35.792969 55.773438 L 35.925781 55.984375 L 39.941406 54.191406 C 42.152344 53.210938 44.082031 52.351562 44.242188 52.285156 C 44.523438 52.167969 44.523438 52.15625 44.355469 52.042969 C 44.265625 51.972656 44.144531 51.804688 44.082031 51.648438 C 43.910156 51.21875 43.664062 50.917969 43.5 50.917969 C 43.308594 50.917969 43.175781 50.695312 43.222656 50.492188 C 43.25 50.410156 43.148438 50.175781 43 49.96875 C 42.859375 49.75 42.726562 49.507812 42.707031 49.421875 C 42.6875 49.328125 42.597656 49.09375 42.519531 48.882812 C 42.351562 48.507812 42.140625 48.332031 41.855469 48.332031 C 41.597656 48.332031 41.28125 47.984375 41.042969 47.414062 C 40.90625 47.125 40.757812 46.824219 40.691406 46.765625 C 40.632812 46.707031 40.578125 46.609375 40.578125 46.550781 C 40.578125 46.492188 40.476562 46.242188 40.332031 45.992188 C 40.070312 45.527344 40.03125 45.265625 40.160156 45.019531 C 40.332031 44.65625 40.441406 44.257812 40.484375 43.84375 C 40.527344 43.328125 40.359375 42.414062 40.214844 42.414062 C 40.167969 42.414062 39.96875 42.257812 39.773438 42.078125 C 39.433594 41.757812 39.324219 41.480469 39.5 41.375 C 39.625 41.300781 39.601562 40.945312 39.46875 40.890625 C 39.398438 40.867188 39.242188 40.648438 39.117188 40.417969 C 38.925781 40.070312 38.582031 39.75 38.390625 39.75 C 38.375 39.75 38.074219 41.109375 37.726562 42.765625 Z M 37.726562 42.765625 "/>
<path style=" stroke:none;fill-rule:nonzero;fill:#d2d8d8;fill-opacity:1;" d="M 23.382812 41.96875 C 23.351562 42.082031 23.339844 42.199219 23.355469 42.222656 C 23.382812 42.242188 23.425781 42.15625 23.449219 42.035156 C 23.484375 41.921875 23.492188 41.804688 23.472656 41.777344 C 23.449219 41.757812 23.40625 41.84375 23.382812 41.96875 Z M 23.382812 41.96875 "/>
<path style=" stroke:none;fill-rule:nonzero;fill:#d2d8d8;fill-opacity:1;" d="M 59.867188 41.933594 C 59.589844 42.25 59.25 42.730469 59.25 42.820312 C 59.25 42.847656 59.425781 42.941406 59.640625 43.007812 C 59.859375 43.074219 60.085938 43.210938 60.148438 43.3125 C 60.265625 43.5 60.257812 43.523438 59.90625 43.859375 C 59.324219 44.40625 57.992188 45.292969 57.558594 45.410156 C 57.339844 45.476562 57.140625 45.558594 57.117188 45.59375 C 57.089844 45.632812 56.933594 45.695312 56.765625 45.742188 C 56.574219 45.800781 56.308594 45.984375 56.066406 46.226562 C 55.734375 46.570312 55.671875 46.699219 55.574219 47.167969 C 55.449219 47.800781 55.292969 48.078125 55.070312 48.078125 C 54.992188 48.078125 54.785156 48.222656 54.605469 48.390625 C 54.433594 48.566406 54.171875 48.78125 54.042969 48.882812 L 53.800781 49.050781 L 53.890625 49.785156 C 53.9375 50.183594 53.992188 50.515625 54.007812 50.53125 C 54.050781 50.566406 64.433594 52.75 64.558594 52.75 C 64.617188 52.75 64.71875 52.625 64.785156 52.476562 C 64.839844 52.316406 65.03125 52.082031 65.1875 51.945312 L 65.492188 51.699219 L 63.65625 47.75 C 62.648438 45.574219 61.804688 43.726562 61.777344 43.652344 C 61.742188 43.535156 61.660156 43.519531 61.320312 43.5625 C 60.925781 43.609375 60.917969 43.601562 60.828125 43.351562 C 60.757812 43.148438 60.65625 43.066406 60.410156 42.992188 C 59.933594 42.84375 59.867188 42.726562 60.066406 42.402344 C 60.332031 41.960938 60.375 41.75 60.183594 41.75 C 60.097656 41.75 59.953125 41.828125 59.867188 41.933594 Z M 59.867188 41.933594 "/>
<path style=" stroke:none;fill-rule:nonzero;fill:#d2d8d8;fill-opacity:1;" d="M 73.015625 42.519531 C 72.9375 42.667969 72.757812 42.964844 72.632812 43.191406 L 72.40625 43.589844 L 72.675781 43.472656 C 72.824219 43.417969 72.976562 43.3125 73.007812 43.25 C 73.066406 43.125 73.242188 42.25 73.195312 42.25 C 73.191406 42.25 73.105469 42.375 73.015625 42.519531 Z M 73.015625 42.519531 "/>
<path style=" stroke:none;fill-rule:nonzero;fill:#d2d8d8;fill-opacity:1;" d="M 22.46875 43.679688 C 22 44.042969 21.867188 44.65625 22.167969 45.140625 C 22.726562 46.066406 24.167969 45.675781 24.167969 44.605469 C 24.167969 43.925781 23.742188 43.5 23.058594 43.5 C 22.804688 43.5 22.617188 43.5625 22.46875 43.679688 Z M 22.46875 43.679688 "/>
<path style=" stroke:none;fill-rule:nonzero;fill:#d2d8d8;fill-opacity:1;" d="M 69.96875 47.875 L 67.667969 51.925781 L 67.875 52.199219 C 68 52.367188 68.132812 52.707031 68.195312 53.007812 L 68.308594 53.542969 L 69.316406 53.742188 C 70.085938 53.890625 70.359375 53.917969 70.441406 53.84375 C 70.527344 53.773438 70.574219 53.445312 70.601562 52.726562 L 70.648438 51.707031 L 71.457031 50.085938 C 71.898438 49.191406 72.292969 48.402344 72.324219 48.332031 C 72.402344 48.195312 73.84375 47.667969 74.144531 47.667969 C 74.304688 47.667969 74.351562 47.765625 74.535156 48.355469 C 74.769531 49.132812 74.941406 49.34375 75.347656 49.355469 C 75.605469 49.375 75.625 49.355469 75.648438 49.082031 C 75.671875 48.925781 75.644531 48.507812 75.578125 48.171875 C 75.417969 47.089844 75.441406 47.152344 75.125 47.175781 C 74.851562 47.199219 74.832031 47.179688 74.492188 46.515625 C 74.148438 45.875 74.117188 45.832031 73.859375 45.832031 C 73.535156 45.832031 73.457031 45.945312 73.292969 46.765625 C 73.125 47.53125 72.992188 47.75 72.667969 47.75 C 72.050781 47.75 71.617188 46.875 71.714844 45.839844 L 71.777344 45.320312 L 72.035156 45.359375 C 72.175781 45.382812 72.40625 45.4375 72.550781 45.457031 C 72.777344 45.507812 72.824219 45.492188 72.875 45.332031 C 72.964844 45.046875 72.859375 44.652344 72.550781 44.226562 L 72.269531 43.835938 Z M 69.96875 47.875 "/>
<path style=" stroke:none;fill-rule:nonzero;fill:#d2d8d8;fill-opacity:1;" d="M 81.15625 45.742188 C 80.882812 46.019531 80.832031 46.117188 80.832031 46.425781 C 80.832031 47.324219 81.734375 47.875 82.476562 47.414062 C 83.101562 47.042969 83.175781 46.183594 82.632812 45.691406 C 82.375 45.457031 82.273438 45.417969 81.90625 45.417969 C 81.527344 45.417969 81.453125 45.449219 81.15625 45.742188 Z M 81.15625 45.742188 "/>
<path style=" stroke:none;fill-rule:nonzero;fill:#d2d8d8;fill-opacity:1;" d="M 23.808594 46.269531 C 23.664062 46.375 23.664062 46.699219 23.835938 52.917969 C 23.925781 56.515625 24.007812 59.550781 24.027344 59.652344 C 24.03125 59.796875 24.125 59.875 24.351562 59.953125 C 24.792969 60.109375 25.070312 60.304688 25.230469 60.59375 C 25.320312 60.722656 25.417969 60.832031 25.457031 60.832031 C 25.507812 60.832031 27.117188 60.066406 29.042969 59.132812 L 32.546875 57.441406 L 32.59375 56.945312 C 32.617188 56.6875 32.703125 56.335938 32.78125 56.191406 L 32.917969 55.917969 L 28.5 51.066406 C 26.066406 48.390625 24.050781 46.199219 24.015625 46.183594 C 23.980469 46.179688 23.882812 46.203125 23.808594 46.269531 Z M 23.808594 46.269531 "/>
<path style=" stroke:none;fill-rule:nonzero;fill:#d2d8d8;fill-opacity:1;" d="M 22.429688 46.644531 C 22.375 46.816406 22.296875 47.640625 22.25 48.472656 C 22.101562 50.925781 22.324219 53.664062 22.875 56.125 C 23 56.671875 23.117188 57.140625 23.132812 57.15625 C 23.183594 57.21875 23.175781 56.804688 23.03125 51.457031 C 22.941406 47.941406 22.867188 46.4375 22.800781 46.398438 C 22.609375 46.273438 22.507812 46.34375 22.429688 46.644531 Z M 22.429688 46.644531 "/>
<path style=" stroke:none;fill-rule:nonzero;fill:#d2d8d8;fill-opacity:1;" d="M 49.199219 49.160156 C 49.027344 49.265625 48.882812 49.460938 48.796875 49.699219 C 48.652344 50.058594 48.652344 50.097656 48.78125 50.457031 C 49.125 51.347656 50.367188 51.417969 50.773438 50.558594 C 50.949219 50.203125 50.949219 50 50.800781 49.625 C 50.558594 49.054688 49.75 48.820312 49.199219 49.160156 Z M 49.199219 49.160156 "/>
<path style=" stroke:none;fill-rule:nonzero;fill:#d2d8d8;fill-opacity:1;" d="M 43.273438 49.550781 C 43.25 49.625 43.3125 49.769531 43.449219 49.90625 C 43.566406 50.03125 43.664062 50.183594 43.664062 50.230469 C 43.664062 50.347656 43.769531 50.492188 44.050781 50.773438 C 44.148438 50.875 44.25 51.035156 44.28125 51.125 C 44.308594 51.226562 44.472656 51.453125 44.652344 51.644531 C 44.949219 51.972656 44.96875 51.984375 45.1875 51.867188 C 45.320312 51.804688 45.417969 51.734375 45.417969 51.714844 C 45.417969 51.707031 45.175781 51.5 44.875 51.269531 C 44.578125 51.023438 44.328125 50.773438 44.328125 50.71875 C 44.328125 50.648438 44.242188 50.515625 44.125 50.410156 C 44.015625 50.300781 43.917969 50.148438 43.917969 50.070312 C 43.917969 50 43.875 49.824219 43.820312 49.675781 C 43.757812 49.484375 43.683594 49.421875 43.535156 49.421875 C 43.417969 49.421875 43.308594 49.472656 43.273438 49.550781 Z M 43.273438 49.550781 "/>
<path style=" stroke:none;fill-rule:nonzero;fill:#d2d8d8;fill-opacity:1;" d="M 51.667969 49.941406 C 51.667969 50.019531 51.894531 50.109375 52.292969 50.1875 C 53.074219 50.367188 53.132812 50.367188 53 50.207031 C 52.941406 50.140625 52.804688 50.085938 52.707031 50.085938 C 52.609375 50.085938 52.359375 50.023438 52.167969 49.953125 C 51.734375 49.8125 51.667969 49.796875 51.667969 49.941406 Z M 51.667969 49.941406 "/>
<path style=" stroke:none;fill-rule:nonzero;fill:#d2d8d8;fill-opacity:1;" d="M 51.300781 51.15625 C 51.179688 51.335938 50.949219 51.550781 50.792969 51.632812 C 50.476562 51.804688 50.4375 51.984375 50.554688 52.683594 L 50.601562 52.984375 L 50.785156 52.777344 C 51 52.523438 51.714844 52.402344 51.84375 52.59375 C 51.96875 52.792969 51.925781 53 51.707031 53.195312 C 51.191406 53.679688 51.632812 54.589844 52.433594 54.707031 C 52.976562 54.792969 53.144531 54.980469 53.015625 55.410156 C 52.859375 55.917969 52.894531 56.109375 53.175781 56.359375 C 53.402344 56.554688 53.5 56.582031 54 56.582031 C 54.316406 56.582031 54.601562 56.617188 54.625 56.667969 C 54.722656 56.828125 55 56.742188 55.203125 56.476562 C 55.324219 56.316406 55.417969 56.152344 55.417969 56.109375 C 55.417969 55.945312 56.203125 55.691406 56.894531 55.644531 C 57.625 55.578125 58.519531 55.695312 58.808594 55.882812 C 59.054688 56.042969 59.472656 56.035156 59.5625 55.875 C 59.675781 55.675781 59.933594 55.808594 59.867188 56.035156 C 59.742188 56.390625 59.792969 56.53125 60.085938 56.714844 C 60.617188 57.058594 60.683594 57.15625 60.632812 57.453125 C 60.507812 58.101562 60.71875 57.964844 62.804688 56.074219 L 64.816406 54.242188 L 64.699219 53.882812 L 64.578125 53.523438 L 62.476562 53.09375 C 61.316406 52.847656 58.957031 52.359375 57.222656 51.992188 C 55.332031 51.597656 53.992188 51.347656 53.867188 51.382812 C 53.730469 51.417969 53.609375 51.390625 53.519531 51.308594 C 53.402344 51.203125 51.90625 50.832031 51.617188 50.832031 C 51.570312 50.832031 51.425781 50.972656 51.300781 51.15625 Z M 51.300781 51.15625 "/>
<path style=" stroke:none;fill-rule:nonzero;fill:#d2d8d8;fill-opacity:1;" d="M 48.507812 51.726562 C 48.445312 51.867188 48.449219 52.082031 48.542969 52.550781 C 48.640625 53.066406 48.703125 53.234375 48.917969 53.429688 C 49.148438 53.652344 49.214844 53.679688 49.523438 53.625 C 49.71875 53.589844 49.882812 53.5625 49.882812 53.546875 C 49.890625 53.546875 49.859375 53.175781 49.8125 52.726562 C 49.734375 51.972656 49.707031 51.921875 49.542969 51.921875 C 49.441406 51.921875 49.191406 51.828125 48.976562 51.726562 L 48.601562 51.53125 Z M 48.507812 51.726562 "/>
<path style=" stroke:none;fill-rule:nonzero;fill:#d2d8d8;fill-opacity:1;" d="M 65.945312 52.324219 C 65.347656 52.597656 65.148438 53.328125 65.5 53.898438 C 65.675781 54.1875 66.089844 54.421875 66.425781 54.421875 C 66.726562 54.421875 67.175781 54.148438 67.339844 53.882812 C 67.683594 53.328125 67.46875 52.625 66.875 52.332031 C 66.453125 52.132812 66.382812 52.132812 65.945312 52.324219 Z M 65.945312 52.324219 "/>
<path style=" stroke:none;fill-rule:nonzero;fill:#d2d8d8;fill-opacity:1;" d="M 40.957031 54.558594 L 36.203125 56.671875 L 36.203125 57.585938 L 42.167969 61.007812 C 45.441406 62.894531 48.582031 64.699219 49.144531 65.019531 L 50.167969 65.601562 L 50.492188 65.304688 C 50.671875 65.148438 50.890625 64.992188 50.992188 64.953125 C 51.21875 64.890625 51.21875 64.773438 50.96875 62.703125 C 50.851562 61.789062 50.605469 59.675781 50.417969 58 C 50.046875 54.625 49.992188 54.421875 49.535156 54.421875 C 49.382812 54.421875 49.234375 54.445312 49.207031 54.5 C 49.125 54.632812 48.679688 54.589844 48.351562 54.421875 C 48.183594 54.324219 47.804688 54.171875 47.523438 54.074219 C 47.242188 53.976562 46.933594 53.820312 46.828125 53.730469 C 46.742188 53.640625 46.597656 53.589844 46.53125 53.617188 C 46.457031 53.640625 46.320312 53.574219 46.203125 53.46875 C 46.042969 53.300781 46.019531 53.210938 46.0625 52.964844 C 46.109375 52.667969 45.984375 52.40625 45.800781 52.429688 C 45.75 52.433594 43.574219 53.390625 40.957031 54.558594 Z M 40.957031 54.558594 "/>
<path style=" stroke:none;fill-rule:nonzero;fill:#d2d8d8;fill-opacity:1;" d="M 17.367188 52.777344 C 16.390625 53.664062 17.570312 55.214844 18.679688 54.472656 C 19.03125 54.234375 19.167969 53.976562 19.167969 53.507812 C 19.167969 53.195312 19.125 53.101562 18.84375 52.824219 C 18.546875 52.53125 18.472656 52.5 18.09375 52.5 C 17.726562 52.5 17.625 52.546875 17.367188 52.777344 Z M 17.367188 52.777344 "/>
<path style=" stroke:none;fill-rule:nonzero;fill:#d2d8d8;fill-opacity:1;" d="M 67.667969 54.582031 C 67.507812 54.75 67.324219 54.90625 67.269531 54.929688 C 67.195312 54.949219 67.285156 56.410156 67.6875 61.507812 C 67.984375 65.109375 68.25 68.101562 68.285156 68.148438 C 68.3125 68.210938 68.429688 68.25 68.546875 68.25 C 68.664062 68.25 68.835938 68.292969 68.933594 68.339844 C 69.074219 68.417969 69.144531 68.390625 69.328125 68.210938 C 69.582031 67.976562 71.335938 65.320312 71.335938 65.183594 C 71.335938 65.140625 71.410156 65.046875 71.492188 64.96875 C 71.582031 64.882812 71.671875 64.71875 71.707031 64.601562 C 71.757812 64.394531 72.117188 63.847656 72.269531 63.742188 C 72.3125 63.71875 72.316406 63.632812 72.285156 63.546875 C 72.234375 63.425781 72.609375 62.757812 72.765625 62.683594 C 72.800781 62.667969 72.804688 62.609375 72.78125 62.546875 C 72.757812 62.480469 72.800781 62.3125 72.882812 62.152344 C 73.125 61.691406 73.402344 60.832031 73.328125 60.785156 C 73.195312 60.710938 73.242188 60.34375 73.417969 59.980469 C 73.507812 59.792969 73.582031 59.484375 73.582031 59.289062 C 73.582031 59.109375 73.632812 58.882812 73.691406 58.796875 C 73.773438 58.679688 73.808594 58.285156 73.808594 57.402344 C 73.816406 56.089844 73.796875 56.019531 73.355469 55.882812 C 73.222656 55.839844 73.144531 55.867188 73.066406 56 C 72.875 56.316406 72.21875 56.59375 71.734375 56.570312 C 71.320312 56.542969 71.308594 56.53125 71.074219 56.125 C 70.945312 55.890625 70.757812 55.539062 70.671875 55.332031 C 70.566406 55.125 70.457031 54.902344 70.421875 54.832031 C 70.367188 54.71875 68.40625 54.242188 68.078125 54.265625 C 68.015625 54.265625 67.824219 54.40625 67.667969 54.582031 Z M 67.667969 54.582031 "/>
<path style=" stroke:none;fill-rule:nonzero;fill:#d2d8d8;fill-opacity:1;" d="M 77.40625 54.8125 C 76.726562 55.230469 76.777344 56.335938 77.492188 56.707031 C 78.617188 57.285156 79.652344 55.792969 78.71875 54.941406 C 78.46875 54.707031 78.355469 54.667969 78.027344 54.667969 C 77.800781 54.667969 77.523438 54.734375 77.40625 54.8125 Z M 77.40625 54.8125 "/>
<path style=" stroke:none;fill-rule:nonzero;fill:#d2d8d8;fill-opacity:1;" d="M 63.292969 56.632812 C 61.582031 58.195312 61.335938 58.449219 61.464844 58.523438 C 61.574219 58.582031 61.625 58.582031 61.648438 58.507812 C 61.667969 58.457031 61.726562 58.367188 61.78125 58.308594 C 61.84375 58.25 61.875 58.15625 61.851562 58.101562 C 61.828125 58.039062 61.898438 58 62.015625 58 C 62.402344 58 62.550781 58.726562 62.234375 59.070312 L 62.042969 59.265625 L 62.625 59.199219 C 63.519531 59.097656 63.703125 59.109375 63.703125 59.25 C 63.703125 59.421875 64.070312 59.582031 64.460938 59.582031 C 64.859375 59.582031 65.671875 59.769531 65.671875 59.851562 C 65.671875 59.890625 65.71875 59.914062 65.785156 59.914062 C 65.917969 59.914062 66.164062 60.265625 66.164062 60.457031 C 66.164062 60.722656 65.832031 61.300781 65.5 61.625 C 65.109375 62 64.816406 62.550781 64.851562 62.84375 C 64.875 63.105469 64.589844 64.015625 64.5 63.957031 C 64.460938 63.933594 64.398438 64.007812 64.367188 64.117188 C 64.304688 64.398438 63.835938 64.796875 63.300781 65.03125 C 62.640625 65.324219 62.167969 65.648438 62.167969 65.8125 C 62.167969 66.082031 61.667969 66.941406 61.335938 67.257812 C 61.152344 67.433594 61 67.617188 61 67.667969 C 61 67.707031 60.925781 67.824219 60.832031 67.917969 C 60.710938 68.039062 60.691406 68.101562 60.765625 68.125 C 60.828125 68.144531 62.167969 68.382812 63.75 68.65625 C 66.390625 69.125 66.625 69.148438 66.699219 69.027344 C 66.804688 68.84375 67.078125 68.574219 67.316406 68.417969 L 67.507812 68.292969 L 67 61.875 C 66.714844 58.339844 66.476562 55.375 66.453125 55.265625 C 66.425781 55.125 66.359375 55.085938 66.140625 55.085938 C 66 55.070312 65.785156 55.023438 65.671875 54.953125 C 65.554688 54.890625 65.417969 54.839844 65.367188 54.832031 C 65.320312 54.832031 64.382812 55.644531 63.292969 56.632812 Z M 63.292969 56.632812 "/>
<path style=" stroke:none;fill-rule:nonzero;fill:#d2d8d8;fill-opacity:1;" d="M 50.867188 55.4375 C 50.90625 55.691406 51.480469 60.648438 51.804688 63.542969 C 51.875 64.226562 51.941406 64.792969 51.945312 64.792969 C 51.945312 64.792969 52.15625 64.875 52.402344 64.976562 L 52.832031 65.148438 L 53.835938 64.242188 C 54.382812 63.730469 54.832031 63.292969 54.832031 63.25 C 54.832031 63.210938 54.796875 63.15625 54.757812 63.132812 C 54.722656 63.105469 54.605469 62.824219 54.5 62.519531 C 54.375 62.117188 54.191406 61.789062 53.910156 61.453125 C 53.46875 60.90625 53.445312 60.828125 53.625 60.394531 C 53.691406 60.226562 53.75 59.953125 53.75 59.792969 C 53.75 59.632812 53.78125 59.5 53.820312 59.5 C 53.867188 59.5 53.917969 59.355469 53.953125 59.171875 C 53.980469 58.925781 54.082031 58.78125 54.375 58.546875 C 54.796875 58.195312 54.875 57.992188 54.792969 57.449219 L 54.734375 57.0625 L 54.082031 57.117188 C 53.582031 57.167969 53.375 57.152344 53.191406 57.058594 C 52.804688 56.851562 51.921875 56 51.921875 55.832031 C 51.921875 55.601562 51.574219 55.28125 51.359375 55.320312 C 51.257812 55.332031 51.101562 55.300781 51 55.25 C 50.832031 55.160156 50.828125 55.175781 50.867188 55.4375 Z M 50.867188 55.4375 "/>
<path style=" stroke:none;fill-rule:nonzero;fill:#d2d8d8;fill-opacity:1;" d="M 33.65625 56.242188 C 33.367188 56.53125 33.332031 56.609375 33.332031 57 C 33.332031 57.390625 33.367188 57.46875 33.65625 57.757812 C 33.925781 58.03125 34.03125 58.078125 34.324219 58.078125 C 35.242188 58.078125 35.792969 57.195312 35.332031 56.4375 C 35.132812 56.101562 34.773438 55.917969 34.324219 55.917969 C 34.03125 55.917969 33.925781 55.96875 33.65625 56.242188 Z M 33.65625 56.242188 "/>
<path style=" stroke:none;fill-rule:nonzero;fill:#d2d8d8;fill-opacity:1;" d="M 29.257812 59.859375 L 25.644531 61.625 L 25.527344 62.078125 C 25.464844 62.324219 25.375 62.570312 25.332031 62.625 C 25.277344 62.6875 26.75 64.117188 30.34375 67.46875 C 33.144531 70.070312 35.457031 72.21875 35.492188 72.234375 C 35.527344 72.242188 35.617188 72.199219 35.695312 72.140625 C 35.851562 72.035156 35.851562 71.941406 35.554688 69.535156 C 35.382812 68.171875 35.046875 65.332031 34.792969 63.25 C 34.542969 61.164062 34.316406 59.324219 34.28125 59.160156 C 34.242188 58.875 34.207031 58.84375 33.875 58.757812 C 33.664062 58.703125 33.382812 58.542969 33.195312 58.375 C 33.03125 58.21875 32.894531 58.078125 32.882812 58.09375 C 32.875 58.09375 31.25 58.890625 29.257812 59.859375 Z M 29.257812 59.859375 "/>
<path style=" stroke:none;fill-rule:nonzero;fill:#d2d8d8;fill-opacity:1;" d="M 35.675781 58.367188 C 35.617188 58.429688 35.441406 58.546875 35.28125 58.625 C 35.007812 58.757812 34.992188 58.78125 35.03125 59.070312 C 35.085938 59.355469 35.695312 64.550781 36.25 69.25 C 36.609375 72.269531 36.527344 71.945312 36.960938 72.0625 C 37.167969 72.125 37.476562 72.296875 37.660156 72.453125 L 37.984375 72.75 L 43.546875 70.324219 C 46.617188 68.992188 49.34375 67.804688 49.605469 67.6875 C 50.019531 67.507812 50.070312 67.449219 50.03125 67.296875 C 50 67.207031 49.953125 66.941406 49.929688 66.714844 C 49.875 66.316406 49.859375 66.296875 49.421875 66.042969 C 46.296875 64.234375 35.832031 58.25 35.808594 58.25 C 35.785156 58.25 35.722656 58.300781 35.675781 58.367188 Z M 35.675781 58.367188 "/>
<path style=" stroke:none;fill-rule:nonzero;fill:#d2d8d8;fill-opacity:1;" d="M 23.191406 60.75 C 22.273438 61.308594 22.660156 62.75 23.726562 62.75 C 24.1875 62.75 24.542969 62.566406 24.707031 62.25 C 24.890625 61.894531 24.867188 61.316406 24.65625 61.046875 C 24.289062 60.578125 23.679688 60.449219 23.191406 60.75 Z M 23.191406 60.75 "/>
<path style=" stroke:none;fill-rule:nonzero;fill:#d2d8d8;fill-opacity:1;" d="M 55.085938 64.117188 C 54.875 64.304688 54.398438 64.742188 54.027344 65.085938 L 53.339844 65.710938 L 53.5 66.296875 L 53.652344 66.875 L 54.675781 67.058594 C 56.230469 67.339844 56.117188 67.339844 56.183594 66.960938 C 56.21875 66.777344 56.273438 66.433594 56.320312 66.203125 C 56.632812 64.625 56.597656 64.265625 56.082031 63.976562 C 55.625 63.71875 55.484375 63.730469 55.085938 64.117188 Z M 55.085938 64.117188 "/>
<path style=" stroke:none;fill-rule:nonzero;fill:#d2d8d8;fill-opacity:1;" d="M 77.078125 65.070312 C 76.78125 65.367188 76.75 65.441406 76.75 65.832031 C 76.75 66.226562 76.78125 66.300781 77.078125 66.59375 C 77.339844 66.867188 77.449219 66.921875 77.742188 66.921875 C 78.191406 66.921875 78.546875 66.734375 78.75 66.390625 C 79.207031 65.644531 78.65625 64.75 77.742188 64.75 C 77.449219 64.75 77.339844 64.796875 77.078125 65.070312 Z M 77.078125 65.070312 "/>
<path style=" stroke:none;fill-rule:nonzero;fill:#d2d8d8;fill-opacity:1;" d="M 26.867188 65.375 C 27.21875 65.929688 28.191406 67.195312 28.890625 68.007812 C 30.320312 69.667969 32.316406 71.457031 34.070312 72.648438 C 34.632812 73.03125 34.773438 73.101562 34.832031 73 C 34.882812 72.9375 34.90625 72.832031 34.90625 72.792969 C 34.90625 72.742188 33.351562 71.269531 31.453125 69.5 C 26.921875 65.292969 26.671875 65.066406 26.867188 65.375 Z M 26.867188 65.375 "/>
<path style=" stroke:none;fill-rule:nonzero;fill:#d2d8d8;fill-opacity:1;" d="M 51.15625 65.722656 C 50.449219 66.15625 50.507812 67.242188 51.25 67.625 C 52.175781 68.101562 53.183594 67.089844 52.707031 66.164062 C 52.429688 65.617188 51.671875 65.398438 51.15625 65.722656 Z M 51.15625 65.722656 "/>
<path style=" stroke:none;fill-rule:nonzero;fill:#d2d8d8;fill-opacity:1;" d="M 53.144531 67.824219 C 53.066406 67.949219 52.894531 68.105469 52.75 68.171875 C 52.617188 68.222656 52.5 68.300781 52.5 68.332031 C 52.5 68.355469 52.648438 70.148438 52.832031 72.296875 C 53.015625 74.445312 53.171875 76.273438 53.171875 76.347656 C 53.171875 76.453125 53.265625 76.507812 53.484375 76.550781 C 53.847656 76.617188 54.171875 76.777344 54.324219 76.945312 C 54.394531 77.023438 54.492188 77.082031 54.5625 77.082031 C 54.632812 77.082031 57.339844 75.644531 60.574219 73.875 L 66.464844 70.671875 L 66.433594 70.304688 C 66.417969 70.117188 66.375 69.933594 66.34375 69.902344 C 66.316406 69.875 64.980469 69.617188 63.375 69.328125 C 61.777344 69.050781 60.300781 68.796875 60.097656 68.75 C 59.75 68.691406 59.734375 68.691406 59.542969 69 C 59.375 69.265625 59.28125 69.324219 58.847656 69.421875 C 58.40625 69.507812 58.339844 69.550781 58.21875 69.796875 C 58.144531 69.953125 57.992188 70.125 57.875 70.167969 C 57.757812 70.207031 57.667969 70.304688 57.667969 70.382812 C 57.667969 70.457031 57.453125 70.710938 57.207031 70.945312 C 56.804688 71.308594 56.75 71.390625 56.75 71.6875 C 56.75 72.023438 56.464844 72.414062 56.21875 72.414062 C 56.152344 72.414062 56.066406 72.449219 56.042969 72.5 C 55.984375 72.59375 56.152344 73.242188 56.269531 73.367188 C 56.300781 73.417969 56.335938 73.5 56.335938 73.566406 C 56.335938 73.65625 56.21875 73.679688 55.765625 73.652344 C 55.320312 73.625 55.132812 73.574219 54.832031 73.367188 C 54.441406 73.105469 54.324219 72.84375 54.535156 72.675781 C 54.601562 72.617188 54.632812 72.519531 54.605469 72.453125 C 54.558594 72.324219 54.796875 71.492188 55.226562 70.292969 C 55.382812 69.832031 55.539062 69.308594 55.566406 69.125 C 55.578125 68.9375 55.648438 68.71875 55.710938 68.625 C 55.851562 68.40625 55.945312 68 55.851562 68 C 55.8125 68 55.257812 67.910156 54.617188 67.792969 C 53.980469 67.675781 53.417969 67.585938 53.375 67.585938 C 53.328125 67.585938 53.222656 67.6875 53.144531 67.824219 Z M 53.144531 67.824219 "/>
<path style=" stroke:none;fill-rule:nonzero;fill:#d2d8d8;fill-opacity:1;" d="M 44.398438 70.765625 L 38.25 73.445312 L 38.25 73.800781 C 38.25 74.070312 38.285156 74.167969 38.402344 74.199219 C 38.472656 74.226562 41.230469 74.976562 44.535156 75.875 C 51.164062 77.675781 51.269531 77.6875 51.648438 77.242188 C 51.777344 77.101562 52.007812 76.898438 52.167969 76.789062 L 52.46875 76.597656 L 52.125 72.570312 L 51.789062 68.546875 L 51.453125 68.449219 C 51.269531 68.402344 50.992188 68.292969 50.851562 68.21875 C 50.710938 68.144531 50.578125 68.078125 50.566406 68.078125 C 50.554688 68.09375 47.777344 69.289062 44.398438 70.765625 Z M 44.398438 70.765625 "/>
<path style=" stroke:none;fill-rule:nonzero;fill:#d2d8d8;fill-opacity:1;" d="M 67.78125 69.03125 C 67.21875 69.28125 66.992188 70 67.285156 70.574219 C 67.765625 71.492188 69.191406 71.183594 69.308594 70.132812 C 69.40625 69.289062 68.574219 68.691406 67.78125 69.03125 Z M 67.78125 69.03125 "/>
<path style=" stroke:none;fill-rule:nonzero;fill:#d2d8d8;fill-opacity:1;" d="M 25.605469 70.832031 C 25.230469 71.0625 25.058594 71.367188 25.066406 71.789062 C 25.070312 72.441406 25.5 72.832031 26.191406 72.832031 C 27.007812 72.832031 27.492188 71.984375 27.101562 71.257812 C 26.808594 70.71875 26.117188 70.515625 25.605469 70.832031 Z M 25.605469 70.832031 "/>
<path style=" stroke:none;fill-rule:nonzero;fill:#d2d8d8;fill-opacity:1;" d="M 61.5 74.214844 C 59.367188 75.375 57.640625 76.335938 57.675781 76.335938 C 57.757812 76.335938 59.382812 75.765625 60 75.515625 C 61.0625 75.09375 62.558594 74.355469 62.632812 74.234375 C 62.675781 74.167969 63.078125 73.875 63.542969 73.582031 C 64 73.292969 64.445312 73 64.550781 72.921875 C 64.933594 72.625 65.515625 72.082031 65.449219 72.089844 C 65.410156 72.089844 63.632812 73.054688 61.5 74.214844 Z M 61.5 74.214844 "/>
<path style=" stroke:none;fill-rule:nonzero;fill:#d2d8d8;fill-opacity:1;" d="M 35.867188 72.910156 C 35.601562 73.074219 35.332031 73.523438 35.332031 73.820312 C 35.332031 74.160156 35.566406 74.578125 35.851562 74.75 C 36.457031 75.117188 37.207031 74.867188 37.46875 74.207031 C 37.597656 73.859375 37.597656 73.808594 37.46875 73.457031 C 37.21875 72.804688 36.457031 72.550781 35.867188 72.910156 Z M 35.867188 72.910156 "/>
<path style=" stroke:none;fill-rule:nonzero;fill:#d2d8d8;fill-opacity:1;" d="M 38.105469 74.953125 C 38.367188 75.148438 40.75 76.0625 41.804688 76.367188 C 43.078125 76.75 44.832031 77.117188 46.15625 77.285156 C 46.726562 77.359375 47.199219 77.40625 47.21875 77.402344 C 47.222656 77.382812 45.148438 76.808594 42.597656 76.109375 C 40.050781 75.417969 38.03125 74.902344 38.105469 74.953125 Z M 38.105469 74.953125 "/>
<path style=" stroke:none;fill-rule:nonzero;fill:#d2d8d8;fill-opacity:1;" d="M 52.617188 77.40625 C 52.242188 77.640625 52.082031 77.898438 52.082031 78.3125 C 52.082031 79.015625 52.480469 79.421875 53.191406 79.421875 C 54.007812 79.421875 54.492188 78.566406 54.097656 77.84375 C 53.808594 77.296875 53.117188 77.101562 52.617188 77.40625 Z M 52.617188 77.40625 "/>
<path style=" stroke:none;fill-rule:nonzero;fill:#d2d8d8;fill-opacity:1;" d="M 62.375 78.445312 C 61.898438 78.917969 61.882812 79.542969 62.339844 79.992188 C 62.792969 80.449219 63.417969 80.4375 63.890625 79.953125 C 64.125 79.722656 64.167969 79.625 64.167969 79.304688 C 64.167969 78.5625 63.773438 78.171875 63.03125 78.171875 C 62.707031 78.171875 62.609375 78.210938 62.375 78.445312 Z M 62.375 78.445312 "/>
<path style=" stroke:none;fill-rule:nonzero;fill:#d2d8d8;fill-opacity:1;" d="M 43.257812 80.484375 C 42.730469 80.574219 42.414062 81.007812 42.414062 81.632812 C 42.414062 81.960938 42.453125 82.058594 42.703125 82.296875 C 42.949219 82.550781 43.039062 82.585938 43.402344 82.585938 C 44.324219 82.585938 44.867188 81.757812 44.421875 81.023438 C 44.160156 80.601562 43.726562 80.398438 43.257812 80.484375 Z M 43.257812 80.484375 "/>
</g>
</svg>